<?xml version="1.0" encoding="UTF-8" ?>
<!DOCTYPE svg PUBLIC "-//W3C//DTD SVG 1.1//EN" "http://www.w3.org/Graphics/SVG/1.1/DTD/svg11.dtd">
<svg width="512pt" height="512pt" viewBox="0 0 512 512" version="1.1" xmlns="http://www.w3.org/2000/svg">
<g id="#000000ff">
<path fill="#000000" opacity="1.00" d=" M 253.49 14.66 C 255.14 13.96 256.94 13.91 258.59 14.64 C 328.32 39.61 398.08 64.53 467.82 89.49 C 471.36 90.81 475.00 91.90 478.44 93.48 C 467.32 190.99 456.75 288.56 445.80 386.08 C 445.59 387.80 445.44 389.54 445.31 391.27 C 382.32 427.15 319.11 462.66 256.05 498.42 C 193.02 462.62 129.79 427.16 66.81 391.26 C 56.78 299.17 46.37 207.11 36.21 115.02 C 35.31 107.86 34.80 100.65 33.65 93.52 C 36.46 92.20 39.41 91.20 42.35 90.20 C 112.73 65.01 183.12 39.85 253.49 14.66 M 114.43 367.59 C 132.05 367.58 149.67 367.59 167.29 367.59 C 176.39 343.64 185.50 319.68 194.71 295.77 C 220.81 295.44 246.91 294.68 273.00 294.92 C 287.79 295.63 302.60 295.29 317.40 295.76 C 326.65 319.65 335.72 343.62 344.84 367.56 C 362.48 367.59 380.11 367.62 397.75 367.55 C 350.41 263.91 303.30 160.17 256.03 56.50 C 208.93 160.24 161.61 263.89 114.43 367.59 Z" />
<path fill="#000000" opacity="1.00" d=" M 213.55 254.23 C 227.70 221.05 241.90 187.88 256.03 154.68 C 270.31 187.83 284.38 221.07 298.59 254.24 C 270.25 254.25 241.90 254.26 213.55 254.23 Z" />
</g>
</svg>
